<?xml version="1.0" encoding="UTF-8" standalone="no"?>
<!-- Generator: Adobe Illustrator 24.2.0, SVG Export Plug-In . SVG Version: 6.00 Build 0)  -->

<svg
   xmlns:dc="http://purl.org/dc/elements/1.1/"
   xmlns:cc="http://creativecommons.org/ns#"
   xmlns:rdf="http://www.w3.org/1999/02/22-rdf-syntax-ns#"
   xmlns:svg="http://www.w3.org/2000/svg"
   xmlns="http://www.w3.org/2000/svg"
   xmlns:sodipodi="http://sodipodi.sourceforge.net/DTD/sodipodi-0.dtd"
   xmlns:inkscape="http://www.inkscape.org/namespaces/inkscape"
   version="1.1"
   id="Layer_1"
   x="0px"
   y="0px"
   viewBox="0 0 732.82965 208.50327"
   xml:space="preserve"
   sodipodi:docname="Logo_Blue_Name2.svg"
   width="732.82965"
   height="208.50327"
   inkscape:version="0.92.3 (2405546, 2018-03-11)"><metadata
   id="metadata77"><rdf:RDF><cc:Work
       rdf:about=""><dc:format>image/svg+xml</dc:format><dc:type
         rdf:resource="http://purl.org/dc/dcmitype/StillImage" /><dc:title></dc:title></cc:Work></rdf:RDF></metadata><defs
   id="defs75" /><sodipodi:namedview
   pagecolor="#ffffff"
   bordercolor="#666666"
   borderopacity="1"
   objecttolerance="10"
   gridtolerance="10"
   guidetolerance="10"
   inkscape:pageopacity="0"
   inkscape:pageshadow="2"
   inkscape:window-width="1853"
   inkscape:window-height="1025"
   id="namedview73"
   showgrid="false"
   fit-margin-top="0"
   fit-margin-left="0"
   fit-margin-right="0"
   fit-margin-bottom="0"
   inkscape:zoom="0.29244114"
   inkscape:cx="358.42966"
   inkscape:cy="115.72997"
   inkscape:window-x="67"
   inkscape:window-y="27"
   inkscape:window-maximized="1"
   inkscape:current-layer="Layer_1" />
<style
   type="text/css"
   id="style2">
	.st0{fill:#1C5D7E;}
</style>
<g
   id="g54"
   transform="translate(-113.57034,-310.7267)">
	<path
   class="st0"
   d="m 223.66,518.46 c -5.14,-4.06 -11.47,-3.66 -12.53,-3.7 -8.66,-0.27 -9.01,2.86 -8.3,4.33 0.17,0.36 -4.37,-0.1 -4.33,0 -2.56,-0.7 -7.17,-3.15 -2.33,-6.43 2.21,-1.5 9.31,-2.73 15.23,-1.77 5.34,1.04 11.13,2.03 12.26,7.57"
   id="path4"
   inkscape:connector-curvature="0"
   style="fill:#1c5d7e" />
	<path
   class="st0"
   d="m 267.33,339.45 c -67.61,-23 -118.79,0.6 -118.79,0.6 l -8.27,8.18 c 0,0 48.31,-27.86 126.18,-5.4 z"
   id="path6"
   inkscape:connector-curvature="0"
   style="fill:#1c5d7e" />
	<path
   class="st0"
   d="m 283.5,335.13 c -21.51,-9.64 -47.44,-14.29 -62.85,-15.35 -31.43,-2.15 -53.34,6.45 -53.34,6.45 l -11.18,6.85 c 0,0 24.03,-13.44 64.29,-10.51 15.19,1.11 40.09,7.24 62.27,15.63 z"
   id="path8"
   inkscape:connector-curvature="0"
   style="fill:#1c5d7e" />
	<path
   class="st0"
   d="m 293.39,378.04 c -28.24,-13.07 -65.69,-18.71 -89.62,-18.62 -63.89,0.25 -83.82,22.24 -83.82,22.24 l -2.64,8.9 c 0,0 18.99,-26.45 89.93,-25.17 16.44,0.3 50.2,2.37 85.09,16.73 z"
   id="path10"
   inkscape:connector-curvature="0"
   style="fill:#1c5d7e" />
	<path
   class="st0"
   d="m 299.57,401.21 c -31.09,-17.72 -75.01,-21.25 -96.59,-21.86 -67.31,-1.91 -88.34,23.43 -88.34,23.43 l -1.02,12.56 c 0.89,-4.4 14.7,-31.27 91.2,-28.89 17.96,0.56 56.56,1.69 93.41,19.85 z"
   id="path12"
   inkscape:connector-curvature="0"
   style="fill:#1c5d7e" />
	<path
   class="st0"
   d="m 113.58,415.85 0.04,-0.51 c -0.05,0.24 -0.06,0.41 -0.04,0.51"
   id="path14"
   inkscape:connector-curvature="0"
   style="fill:#1c5d7e" />
	<path
   class="st0"
   d="m 270.99,433.74 c -21.63,-7.35 -45.23,-10.12 -61.52,-11.11 -112.12,-2.75 -87.96,36.68 -87.96,36.68 0,0 -7.58,-29.09 84.99,-30.05 4.25,-0.04 34.11,1.35 63.1,9.75 z"
   id="path16"
   inkscape:connector-curvature="0"
   style="fill:#1c5d7e" />
	<path
   class="st0"
   d="m 269.05,411.68 c -23.66,-7.95 -49.72,-11.38 -65.35,-11.77 -70.05,-0.47 -85.08,19.73 -89.4,26.4 -1.56,3.91 0.54,11.36 0.54,11.36 0,0 3.43,-30.29 90.7,-30.66 4.34,-0.02 33.23,2.01 62.08,10.08 z"
   id="path18"
   inkscape:connector-curvature="0"
   style="fill:#1c5d7e" />
	<path
   class="st0"
   d="m 264.96,454.71 c -18.35,-7.15 -39.82,-10.69 -54.04,-11.76 -30.62,-1.67 -57.86,3.9 -69.57,9.39 -22.98,10.77 -9.38,25 -9.38,25 0,0 -8.97,-27.64 76.27,-27.8 3.8,-0.01 31.14,2.06 55.36,10.34 z"
   id="path20"
   inkscape:connector-curvature="0"
   style="fill:#1c5d7e" />
	<path
   class="st0"
   d="m 239.14,473.26 1.2,-4.56 c -10.22,-2.7 -20.48,-4.45 -28.5,-5.25 -26.47,-2.02 -49.81,3.32 -59.98,8.29 -22.29,10.9 -5.82,24 -5.82,24 0,0 -12.38,-26.81 63.57,-25.88 2.32,0.03 14.89,0.29 29.56,3.42 z"
   id="path22"
   inkscape:connector-curvature="0"
   style="fill:#1c5d7e" />
	<path
   class="st0"
   d="m 245.73,490.5 c -10.32,-4.16 -22.66,-6.64 -32.26,-7.93 -21.02,-2.26 -42.18,1.13 -50.17,5.59 -17.51,9.75 0.22,21.28 0.22,21.28 0,0 -16.23,-23.8 45.55,-22.17 2.58,0.07 19.54,-0.03 35.8,6.47 z"
   id="path24"
   inkscape:connector-curvature="0"
   style="fill:#1c5d7e" />
	<path
   class="st0"
   d="m 225.88,501.3 c -4.78,-1.32 -9.75,-2.2 -14.03,-2.77 -13.76,-1.48 -28.15,0.87 -33.38,3.78 -11.46,6.38 -1.42,13.62 4.53,14.79 -0.45,-0.9 -13.01,-15.4 27.41,-14.34 1.35,0.04 7.27,-0.2 14.66,1.61 z"
   id="path26"
   inkscape:connector-curvature="0"
   style="fill:#1c5d7e" />
	<path
   class="st0"
   d="m 270,351.68 c -23.15,-6.76 -45.41,-8.59 -62.65,-9.14 -48.29,-1.54 -75.63,16.51 -75.63,16.51 l -5.29,8.41 c 0,0 20.68,-19.96 80.55,-20.25 17.69,-0.09 38.32,2.22 61.88,8.15 z"
   id="path28"
   inkscape:connector-curvature="0"
   style="fill:#1c5d7e" />
	<path
   class="st0"
   d="m 286.06,339.5 c 1.15,0.45 2.28,0.91 3.41,1.37 l 0.76,-2.47 c -1.16,-0.61 -2.33,-1.21 -3.52,-1.78 z"
   id="path30"
   inkscape:connector-curvature="0"
   style="fill:#1c5d7e" />
	<path
   class="st0"
   d="m 283.17,356.06 c -1.29,-0.48 -2.59,-0.95 -3.88,-1.4 l -0.82,3.28 c 1.3,0.37 2.61,0.76 3.92,1.15 z"
   id="path32"
   inkscape:connector-curvature="0"
   style="fill:#1c5d7e" />
	<path
   class="st0"
   d="m 304.73,384.02 c -2.17,-1.3 -4.42,-2.55 -6.75,-3.75 l -0.87,3.88 c 2.32,1.03 4.63,2.11 6.94,3.25 z"
   id="path34"
   inkscape:connector-curvature="0"
   style="fill:#1c5d7e" />
	<path
   class="st0"
   d="m 313.57,411.03 c -1.41,-1.22 -2.87,-2.4 -4.38,-3.54 l -0.95,4.21 c 1.55,0.91 3.09,1.87 4.63,2.85 z"
   id="path36"
   inkscape:connector-curvature="0"
   style="fill:#1c5d7e" />
	<path
   class="st0"
   d="m 283.64,417.36 c -1.96,-0.88 -3.97,-1.73 -6,-2.54 l -1.12,4.98 c 2.08,0.68 4.15,1.41 6.2,2.16 z"
   id="path38"
   inkscape:connector-curvature="0"
   style="fill:#1c5d7e" />
	<path
   class="st0"
   d="m 295.89,445.24 c -2.43,-1.52 -4.95,-2.94 -7.56,-4.27 l -0.99,3.99 c 2.5,1.05 4.97,2.44 7.35,3.63 z"
   id="path40"
   inkscape:connector-curvature="0"
   style="fill:#1c5d7e" />
	<path
   class="st0"
   d="m 277.85,460.71 c -1.43,-0.8 -2.9,-1.57 -4.41,-2.31 l -1.09,4.82 c 1.34,0.58 2.66,1.18 3.96,1.8 z"
   id="path42"
   inkscape:connector-curvature="0"
   style="fill:#1c5d7e" />
	<path
   class="st0"
   d="m 255,473.33 c -1.91,-0.72 -3.87,-1.41 -5.86,-2.05 l -0.95,4.24 c 1.8,0.52 3.61,1.1 5.41,1.72 z"
   id="path44"
   inkscape:connector-curvature="0"
   style="fill:#1c5d7e" />
	<path
   class="st0"
   d="m 258.23,497.37 c -1.61,-1.26 -3.41,-2.43 -5.37,-3.51 l -0.74,3.29 c 1.73,0.95 3.42,2.01 5.06,3.15 z"
   id="path46"
   inkscape:connector-curvature="0"
   style="fill:#1c5d7e" />
	<path
   class="st0"
   d="m 237.28,505.83 c -1.4,-0.81 -2.92,-1.55 -4.54,-2.21 l -0.68,3.03 c 1.39,0.57 2.81,1.23 4.22,1.98 z"
   id="path48"
   inkscape:connector-curvature="0"
   style="fill:#1c5d7e" />
	<path
   class="st0"
   d="m 273.03,324.45 c -29.63,-16.37 -59.47,-15.4 -77.39,-10.81 l -1.12,1.36 c 17.52,-3.66 47.47,-3.98 78.1,10.13 z"
   id="path50"
   inkscape:connector-curvature="0"
   style="fill:#1c5d7e" />
	<path
   class="st0"
   d="m 277.74,343.33 c -1.91,-0.77 -3.8,-1.51 -5.69,-2.21 l -0.71,3.17 c 1.83,0.57 3.67,1.17 5.52,1.79 z"
   id="path52"
   inkscape:connector-curvature="0"
   style="fill:#1c5d7e" />
</g>
<g
   id="g70"
   transform="translate(-113.57034,-310.7267)">
	<path
   class="st0"
   d="m 370.87,456.6 c -9.27,0 -16.81,-3.01 -22.61,-9.04 -5.79,-6.03 -8.69,-14.03 -8.69,-24 0,-9.97 2.94,-17.95 8.81,-23.94 5.87,-5.99 13.47,-8.98 22.78,-8.98 9.31,0 16.87,2.88 22.67,8.64 5.79,5.76 8.69,13.27 8.69,22.55 0,2.24 -0.15,4.33 -0.46,6.26 h -48.92 c 0.31,5.33 2.1,9.57 5.39,12.7 3.28,3.13 7.4,4.7 12.35,4.7 7.19,0 12.25,-2.97 15.19,-8.93 h 14.26 c -1.93,5.88 -5.44,10.68 -10.54,14.43 -5.12,3.73 -11.42,5.61 -18.92,5.61 m 12.64,-50.14 c -3.4,-3.13 -7.54,-4.7 -12.41,-4.7 -4.87,0 -8.95,1.56 -12.23,4.7 -3.29,3.13 -5.16,7.32 -5.63,12.58 h 35.48 c -0.07,-5.26 -1.81,-9.46 -5.21,-12.58"
   id="path56"
   inkscape:connector-curvature="0"
   style="fill:#1c5d7e" />
	<rect
   x="420.54999"
   y="417.84"
   class="st0"
   width="37.830002"
   height="11.13"
   id="rect58"
   style="fill:#1c5d7e" />
	<polygon
   class="st0"
   points="549.18,455.55 549.18,400.37 524.6,455.55 515.44,455.55 490.74,400.37 490.74,455.55 477.53,455.55 477.53,374.98 491.79,374.98 520.08,438.16 548.24,374.98 562.39,374.98 562.39,455.55 "
   id="polygon60"
   style="fill:#1c5d7e" />
	<path
   class="st0"
   d="m 604.64,456.6 c -9.31,0 -16.98,-3.03 -23.01,-9.1 -6.03,-6.07 -9.04,-14.03 -9.04,-23.88 0,-9.86 3.1,-17.81 9.33,-23.88 6.22,-6.07 13.97,-9.1 23.24,-9.1 9.28,0 17.02,3.04 23.25,9.1 6.22,6.07 9.33,14.01 9.33,23.82 0,9.82 -3.18,17.78 -9.56,23.88 -6.38,6.1 -14.23,9.16 -23.54,9.16 m 13.74,-16.93 c 3.86,-3.86 5.79,-9.23 5.79,-16.11 0,-6.88 -1.87,-12.23 -5.62,-16.06 -3.75,-3.83 -8.29,-5.74 -13.62,-5.74 -5.33,0 -9.82,1.91 -13.45,5.74 -3.63,3.83 -5.44,9.2 -5.44,16.11 0,6.92 1.78,12.29 5.33,16.12 3.55,3.82 7.98,5.73 13.27,5.73 5.29,0 9.87,-1.92 13.74,-5.79"
   id="path62"
   inkscape:connector-curvature="0"
   style="fill:#1c5d7e" />
	<path
   class="st0"
   d="m 661.15,391.67 v 10.09 c 4.26,-7.42 11.05,-11.13 20.41,-11.13 7.18,0 13.12,2.4 17.79,7.19 4.68,4.79 7.01,11.47 7.01,20.05 v 37.68 h -13.09 v -35.71 c 0,-5.72 -1.43,-10.1 -4.29,-13.16 -2.86,-3.05 -6.76,-4.58 -11.7,-4.58 -4.95,0 -8.87,1.53 -11.77,4.58 -2.9,3.06 -4.35,7.44 -4.35,13.16 v 35.71 h -13.21 v -63.87 h 13.2 z"
   id="path64"
   inkscape:connector-curvature="0"
   style="fill:#1c5d7e" />
	<path
   class="st0"
   d="m 747.17,456.6 c -9.27,0 -16.81,-3.01 -22.6,-9.04 -5.8,-6.03 -8.7,-14.03 -8.7,-24 0,-9.97 2.94,-17.95 8.81,-23.94 5.87,-5.99 13.46,-8.98 22.78,-8.98 9.31,0 16.87,2.88 22.67,8.64 5.8,5.76 8.69,13.27 8.69,22.55 0,2.24 -0.16,4.33 -0.46,6.26 h -48.92 c 0.31,5.33 2.1,9.57 5.39,12.7 3.28,3.13 7.4,4.7 12.35,4.7 7.19,0 12.25,-2.97 15.19,-8.93 h 14.26 c -1.93,5.88 -5.45,10.68 -10.54,14.43 -5.13,3.73 -11.42,5.61 -18.92,5.61 m 12.64,-50.14 c -3.4,-3.13 -7.54,-4.7 -12.41,-4.7 -4.87,0 -8.95,1.56 -12.23,4.7 -3.29,3.13 -5.16,7.32 -5.62,12.58 h 35.47 c -0.07,-5.26 -1.81,-9.46 -5.21,-12.58"
   id="path66"
   inkscape:connector-curvature="0"
   style="fill:#1c5d7e" />
	<polygon
   class="st0"
   points="796.09,391.67 814.06,440.36 832.73,391.67 846.4,391.67 807.22,485.58 793.54,485.58 806.52,454.51 781.37,391.67 "
   id="polygon68"
   style="fill:#1c5d7e" />
</g>
</svg>