<?xml version="1.0" encoding="UTF-8" standalone="no"?>
<!-- Created with Inkscape (http://www.inkscape.org/) -->

<svg
   xmlns:dc="http://purl.org/dc/elements/1.1/"
   xmlns:cc="http://creativecommons.org/ns#"
   xmlns:rdf="http://www.w3.org/1999/02/22-rdf-syntax-ns#"
   xmlns:svg="http://www.w3.org/2000/svg"
   xmlns="http://www.w3.org/2000/svg"
   xmlns:sodipodi="http://sodipodi.sourceforge.net/DTD/sodipodi-0.dtd"
   xmlns:inkscape="http://www.inkscape.org/namespaces/inkscape"
   version="1.1"
   id="svg2"
   xml:space="preserve"
   width="977.11566"
   height="278.00934"
   viewBox="0 0 977.11562 278.00934"
   sodipodi:docname="emoney_logo_white.svg"
   inkscape:version="0.92.3 (2405546, 2018-03-11)"><metadata
     id="metadata8"><rdf:RDF><cc:Work
         rdf:about=""><dc:format>image/svg+xml</dc:format><dc:type
           rdf:resource="http://purl.org/dc/dcmitype/StillImage" /><dc:title></dc:title></cc:Work></rdf:RDF></metadata><defs
     id="defs6"><clipPath
       clipPathUnits="userSpaceOnUse"
       id="clipPath18"><path
         d="M 0,807 H 944 V 0 H 0 Z"
         id="path16"
         inkscape:connector-curvature="0" /></clipPath></defs><sodipodi:namedview
     pagecolor="#ffffff"
     bordercolor="#666666"
     borderopacity="1"
     objecttolerance="10"
     gridtolerance="10"
     guidetolerance="10"
     inkscape:pageopacity="0"
     inkscape:pageshadow="2"
     inkscape:window-width="1853"
     inkscape:window-height="1025"
     id="namedview4"
     showgrid="false"
     fit-margin-top="0"
     fit-margin-left="0"
     fit-margin-right="0"
     fit-margin-bottom="0"
     inkscape:zoom="0.21933086"
     inkscape:cx="477.90958"
     inkscape:cy="154.30637"
     inkscape:window-x="67"
     inkscape:window-y="27"
     inkscape:window-maximized="1"
     inkscape:current-layer="g10" /><g
     id="g10"
     inkscape:groupmode="layer"
     inkscape:label="Logo_White_Name2"
     transform="matrix(1.3333333,0,0,-1.3333333,-151.42379,661.70296)"><g
       id="g12"
       style="fill:#ffffff"><g
         id="g14"
         clip-path="url(#clipPath18)"
         style="fill:#ffffff"><g
           id="g20"
           transform="translate(223.6641,288.542)"
           style="fill:#ffffff"><path
             d="m 0,0 c -5.139,4.059 -11.469,3.664 -12.532,3.698 -8.656,0.27 -9.005,-2.863 -8.296,-4.329 0.175,-0.361 -4.368,0.098 -4.328,0 -2.564,0.7 -7.171,3.149 -2.335,6.434 2.208,1.501 9.314,2.728 15.228,1.77 C -6.919,6.528 -1.135,5.538 0,0"
             style="fill:#ffffff;fill-opacity:1;fill-rule:nonzero;stroke:none"
             id="path22"
             inkscape:connector-curvature="0" /></g><g
           id="g24"
           transform="translate(267.3291,467.5459)"
           style="fill:#ffffff"><path
             d="m 0,0 c -67.605,22.997 -118.792,-0.6 -118.792,-0.6 l -8.273,-8.176 c 0,0 48.312,27.862 126.177,5.401 z"
             style="fill:#ffffff;fill-opacity:1;fill-rule:nonzero;stroke:none"
             id="path26"
             inkscape:connector-curvature="0" /></g><g
           id="g28"
           transform="translate(283.5005,471.8701)"
           style="fill:#ffffff"><path
             d="m 0,0 c -21.511,9.64 -47.441,14.292 -62.851,15.345 -31.432,2.15 -53.337,-6.447 -53.337,-6.447 l -11.181,-6.851 c 0,0 24.029,13.441 64.286,10.506 15.19,-1.107 40.09,-7.239 62.274,-15.626 z"
             style="fill:#ffffff;fill-opacity:1;fill-rule:nonzero;stroke:none"
             id="path30"
             inkscape:connector-curvature="0" /></g><g
           id="g32"
           transform="translate(293.3916,428.9639)"
           style="fill:#ffffff"><path
             d="m 0,0 c -28.241,13.072 -65.693,18.712 -89.622,18.622 -63.892,-0.247 -83.823,-22.236 -83.823,-22.236 l -2.644,-8.897 c 0,0 18.994,26.448 89.927,25.169 16.44,-0.297 50.198,-2.367 85.091,-16.727 z"
             style="fill:#ffffff;fill-opacity:1;fill-rule:nonzero;stroke:none"
             id="path34"
             inkscape:connector-curvature="0" /></g><g
           id="g36"
           transform="translate(299.5693,405.7886)"
           style="fill:#ffffff"><path
             d="m 0,0 c -31.094,17.721 -75.007,21.25 -96.591,21.86 -67.309,1.907 -88.34,-23.434 -88.34,-23.434 l -1.023,-12.562 c 0.887,4.402 14.699,31.272 91.205,28.889 17.963,-0.561 56.561,-1.686 93.408,-19.845 z"
             style="fill:#ffffff;fill-opacity:1;fill-rule:nonzero;stroke:none"
             id="path38"
             inkscape:connector-curvature="0" /></g><g
           id="g40"
           transform="translate(113.5752,391.1465)"
           style="fill:#ffffff"><path
             d="M 0,0 0.041,0.506 C -0.005,0.273 -0.017,0.102 0,0"
             style="fill:#ffffff;fill-opacity:1;fill-rule:nonzero;stroke:none"
             id="path42"
             inkscape:connector-curvature="0" /></g><g
           id="g44"
           transform="translate(270.9902,373.2646)"
           style="fill:#ffffff"><path
             d="m 0,0 c -21.631,7.349 -45.232,10.118 -61.52,11.106 -112.124,2.749 -87.959,-36.681 -87.959,-36.681 0,0 -7.576,29.091 84.992,30.054 4.248,0.043 34.109,-1.355 63.099,-9.754 z"
             style="fill:#ffffff;fill-opacity:1;fill-rule:nonzero;stroke:none"
             id="path46"
             inkscape:connector-curvature="0" /></g><g
           id="g48"
           transform="translate(269.0508,395.3223)"
           style="fill:#ffffff"><path
             d="m 0,0 c -23.663,7.949 -49.719,11.376 -65.351,11.77 -70.048,0.465 -85.076,-19.731 -89.402,-26.403 -1.564,-3.909 0.54,-11.361 0.54,-11.361 0,0 3.427,30.295 90.703,30.655 4.337,0.019 33.227,-2.013 62.082,-10.083 z"
             style="fill:#ffffff;fill-opacity:1;fill-rule:nonzero;stroke:none"
             id="path50"
             inkscape:connector-curvature="0" /></g><g
           id="g52"
           transform="translate(264.9629,352.2852)"
           style="fill:#ffffff"><path
             d="m 0,0 c -18.348,7.153 -39.825,10.694 -54.044,11.764 -30.622,1.673 -57.856,-3.897 -69.572,-9.388 -22.985,-10.768 -9.378,-25.004 -9.378,-25.004 0,0 -8.966,27.644 76.273,27.796 3.804,0.007 31.139,-2.063 55.36,-10.339 z"
             style="fill:#ffffff;fill-opacity:1;fill-rule:nonzero;stroke:none"
             id="path54"
             inkscape:connector-curvature="0" /></g><g
           id="g56"
           transform="translate(239.1416,333.7432)"
           style="fill:#ffffff"><path
             d="M 0,0 1.199,4.559 C -9.021,7.26 -19.279,9.012 -27.306,9.81 -53.78,11.826 -77.117,6.493 -87.29,1.521 c -22.288,-10.897 -5.818,-24 -5.818,-24 0,0 -12.382,26.807 63.574,25.884 2.32,-0.027 14.893,-0.287 29.556,-3.417 z"
             style="fill:#ffffff;fill-opacity:1;fill-rule:nonzero;stroke:none"
             id="path58"
             inkscape:connector-curvature="0" /></g><g
           id="g60"
           transform="translate(245.7324,316.498)"
           style="fill:#ffffff"><path
             d="m 0,0 c -10.322,4.161 -22.661,6.639 -32.256,7.928 -21.025,2.259 -42.177,-1.133 -50.172,-5.586 -17.513,-9.753 0.221,-21.281 0.221,-21.281 0,0 -16.229,23.803 45.551,22.174 2.576,-0.069 19.54,0.035 35.803,-6.474 z"
             style="fill:#ffffff;fill-opacity:1;fill-rule:nonzero;stroke:none"
             id="path62"
             inkscape:connector-curvature="0" /></g><g
           id="g64"
           transform="translate(225.8823,305.6982)"
           style="fill:#ffffff"><path
             d="m 0,0 c -4.781,1.319 -9.754,2.195 -14.029,2.769 -13.757,1.478 -28.155,-0.867 -33.385,-3.779 -11.459,-6.383 -1.419,-13.622 4.533,-14.795 -0.452,0.902 -13.015,15.405 27.408,14.337 1.347,-0.035 7.273,0.2 14.662,-1.614 z"
             style="fill:#ffffff;fill-opacity:1;fill-rule:nonzero;stroke:none"
             id="path66"
             inkscape:connector-curvature="0" /></g><g
           id="g68"
           transform="translate(270,455.3154)"
           style="fill:#ffffff"><path
             d="m 0,0 c -23.149,6.758 -45.405,8.591 -62.646,9.142 -48.289,1.545 -75.626,-16.508 -75.626,-16.508 l -5.29,-8.414 c 0,0 20.678,19.955 80.546,20.255 17.692,0.09 38.325,-2.216 61.885,-8.15 z"
             style="fill:#ffffff;fill-opacity:1;fill-rule:nonzero;stroke:none"
             id="path70"
             inkscape:connector-curvature="0" /></g><g
           id="g72"
           transform="translate(286.0586,467.4961)"
           style="fill:#ffffff"><path
             d="M 0,0 C 1.147,-0.453 2.282,-0.911 3.409,-1.373 L 4.167,1.093 C 3.009,1.701 1.841,2.301 0.647,2.877 Z"
             style="fill:#ffffff;fill-opacity:1;fill-rule:nonzero;stroke:none"
             id="path74"
             inkscape:connector-curvature="0" /></g><g
           id="g76"
           transform="translate(283.1724,450.9404)"
           style="fill:#ffffff"><path
             d="m 0,0 c -1.293,0.484 -2.586,0.953 -3.877,1.403 l -0.821,-3.28 c 1.297,-0.37 2.608,-0.76 3.921,-1.149 z"
             style="fill:#ffffff;fill-opacity:1;fill-rule:nonzero;stroke:none"
             id="path78"
             inkscape:connector-curvature="0" /></g><g
           id="g80"
           transform="translate(304.7261,422.9829)"
           style="fill:#ffffff"><path
             d="m 0,0 c -2.165,1.304 -4.416,2.554 -6.748,3.747 l -0.874,-3.879 c 2.315,-1.026 4.631,-2.115 6.944,-3.255 z"
             style="fill:#ffffff;fill-opacity:1;fill-rule:nonzero;stroke:none"
             id="path82"
             inkscape:connector-curvature="0" /></g><g
           id="g84"
           transform="translate(313.5703,395.9727)"
           style="fill:#ffffff"><path
             d="M 0,0 C -1.41,1.223 -2.873,2.401 -4.382,3.535 L -5.33,-0.674 c 1.55,-0.913 3.091,-1.869 4.625,-2.848 z"
             style="fill:#ffffff;fill-opacity:1;fill-rule:nonzero;stroke:none"
             id="path86"
             inkscape:connector-curvature="0" /></g><g
           id="g88"
           transform="translate(283.645,389.6445)"
           style="fill:#ffffff"><path
             d="m 0,0 c -1.964,0.885 -3.965,1.734 -6.002,2.543 l -1.121,-4.981 c 2.085,-0.683 4.155,-1.406 6.204,-2.158 z"
             style="fill:#ffffff;fill-opacity:1;fill-rule:nonzero;stroke:none"
             id="path90"
             inkscape:connector-curvature="0" /></g><g
           id="g92"
           transform="translate(295.8931,361.7598)"
           style="fill:#ffffff"><path
             d="M 0,0 C -2.427,1.52 -4.951,2.944 -7.557,4.272 L -8.543,0.283 c 2.5,-1.053 4.973,-2.442 7.348,-3.634 z"
             style="fill:#ffffff;fill-opacity:1;fill-rule:nonzero;stroke:none"
             id="path94"
             inkscape:connector-curvature="0" /></g><g
           id="g96"
           transform="translate(277.8452,346.2852)"
           style="fill:#ffffff"><path
             d="m 0,0 c -1.43,0.8 -2.9,1.57 -4.413,2.308 l -1.086,-4.824 c 1.345,-0.577 2.661,-1.18 3.957,-1.803 z"
             style="fill:#ffffff;fill-opacity:1;fill-rule:nonzero;stroke:none"
             id="path98"
             inkscape:connector-curvature="0" /></g><g
           id="g100"
           transform="translate(254.9976,333.668)"
           style="fill:#ffffff"><path
             d="M 0,0 C -1.913,0.723 -3.87,1.405 -5.856,2.053 L -6.811,-2.19 c 1.804,-0.524 3.612,-1.1 5.415,-1.721 z"
             style="fill:#ffffff;fill-opacity:1;fill-rule:nonzero;stroke:none"
             id="path102"
             inkscape:connector-curvature="0" /></g><g
           id="g104"
           transform="translate(258.229,309.6338)"
           style="fill:#ffffff"><path
             d="m 0,0 c -1.61,1.257 -3.413,2.426 -5.367,3.509 l -0.74,-3.292 c 1.73,-0.952 3.42,-2.006 5.059,-3.154 z"
             style="fill:#ffffff;fill-opacity:1;fill-rule:nonzero;stroke:none"
             id="path106"
             inkscape:connector-curvature="0" /></g><g
           id="g108"
           transform="translate(237.2788,301.1738)"
           style="fill:#ffffff"><path
             d="m 0,0 c -1.396,0.812 -2.922,1.548 -4.538,2.211 l -0.68,-3.03 C -3.824,-1.39 -2.412,-2.053 -1,-2.804 Z"
             style="fill:#ffffff;fill-opacity:1;fill-rule:nonzero;stroke:none"
             id="path110"
             inkscape:connector-curvature="0" /></g><g
           id="g112"
           transform="translate(273.0312,482.5537)"
           style="fill:#ffffff"><path
             d="m 0,0 c -29.625,16.375 -59.467,15.397 -77.387,10.811 l -1.121,-1.359 c 17.515,3.658 47.474,3.977 78.103,-10.135 z"
             style="fill:#ffffff;fill-opacity:1;fill-rule:nonzero;stroke:none"
             id="path114"
             inkscape:connector-curvature="0" /></g><g
           id="g116"
           transform="translate(277.7393,463.6655)"
           style="fill:#ffffff"><path
             d="m 0,0 c -1.906,0.768 -3.803,1.512 -5.686,2.206 l -0.712,-3.172 c 1.825,-0.568 3.666,-1.166 5.522,-1.787 z"
             style="fill:#ffffff;fill-opacity:1;fill-rule:nonzero;stroke:none"
             id="path118"
             inkscape:connector-curvature="0" /></g><g
           id="g120"
           transform="translate(383.5122,400.543)"
           style="fill:#ffffff"><path
             d="m 0,0 c -3.404,3.132 -7.535,4.696 -12.405,4.696 -4.873,0 -8.947,-1.564 -12.229,-4.696 -3.288,-3.127 -5.159,-7.322 -5.626,-12.576 H 5.217 C 5.138,-7.322 3.398,-3.127 0,0 m -12.638,-50.139 c -9.275,0 -16.811,3.012 -22.606,9.041 -5.794,6.032 -8.694,14.028 -8.694,24 0,9.967 2.938,17.95 8.807,23.94 5.873,5.987 13.469,8.982 22.781,8.982 9.312,0 16.87,-2.88 22.668,-8.636 5.793,-5.756 8.69,-13.274 8.69,-22.545 0,-2.245 -0.152,-4.33 -0.46,-6.262 h -48.924 c 0.308,-5.332 2.104,-9.567 5.391,-12.695 3.282,-3.131 7.399,-4.696 12.347,-4.696 7.187,0 12.246,2.975 15.185,8.926 h 14.258 c -1.928,-5.877 -5.444,-10.684 -10.545,-14.43 -5.103,-3.75 -11.402,-5.625 -18.898,-5.625"
             style="fill:#ffffff;fill-opacity:1;fill-rule:nonzero;stroke:none"
             id="path122"
             inkscape:connector-curvature="0" /></g><path
           d="m 420.545,389.158 h 37.827 v -11.133 h -37.827 z"
           style="fill:#ffffff;fill-opacity:1;fill-rule:nonzero;stroke:none"
           id="path124"
           inkscape:connector-curvature="0" /><g
           id="g126"
           transform="translate(562.3887,432.02)"
           style="fill:#ffffff"><path
             d="m 0,0 v -80.575 h -13.213 v 55.186 l -24.578,-55.186 h -9.162 l -24.693,55.186 V -80.575 H -84.862 V 0 h 14.258 L -42.313,-63.18 -14.147,0 Z"
             style="fill:#ffffff;fill-opacity:1;fill-rule:nonzero;stroke:none"
             id="path128"
             inkscape:connector-curvature="0" /></g><g
           id="g130"
           transform="translate(618.377,367.332)"
           style="fill:#ffffff"><path
             d="m 0,0 c 3.864,3.859 5.794,9.232 5.794,16.111 0,6.879 -1.867,12.231 -5.619,16.057 -3.745,3.827 -8.288,5.74 -13.623,5.74 -5.327,0 -9.816,-1.913 -13.446,-5.74 -3.632,-3.826 -5.444,-9.197 -5.444,-16.113 0,-6.92 1.776,-12.291 5.328,-16.116 3.553,-3.822 7.981,-5.734 13.27,-5.734 5.294,0 9.878,1.928 13.74,5.795 m -13.74,-16.928 c -9.309,0 -16.979,3.032 -23.007,9.1 -6.026,6.07 -9.039,14.027 -9.039,23.883 0,9.855 3.104,17.812 9.331,23.879 6.217,6.068 13.967,9.104 23.239,9.104 9.278,0 17.023,-3.036 23.248,-9.104 6.221,-6.067 9.327,-14.006 9.327,-23.823 0,-9.818 -3.182,-17.775 -9.556,-23.882 -6.38,-6.104 -14.227,-9.157 -23.543,-9.157"
             style="fill:#ffffff;fill-opacity:1;fill-rule:nonzero;stroke:none"
             id="path132"
             inkscape:connector-curvature="0" /></g><g
           id="g134"
           transform="translate(661.1533,415.3257)"
           style="fill:#ffffff"><path
             d="m 0,0 v -10.086 c 4.256,7.418 11.053,11.13 20.407,11.13 7.184,0 13.116,-2.399 17.793,-7.19 4.677,-4.793 7.009,-11.475 7.009,-20.053 V -63.875 H 32.115 v 35.706 c 0,5.718 -1.431,10.101 -4.292,13.158 -2.862,3.05 -6.761,4.576 -11.703,4.576 -4.954,0 -8.874,-1.526 -11.77,-4.576 C 1.451,-18.068 0,-22.451 0,-28.169 V -63.875 H -13.214 V 0 Z"
             style="fill:#ffffff;fill-opacity:1;fill-rule:nonzero;stroke:none"
             id="path136"
             inkscape:connector-curvature="0" /></g><g
           id="g138"
           transform="translate(759.8135,400.543)"
           style="fill:#ffffff"><path
             d="M 0,0 C -3.404,3.132 -7.54,4.696 -12.408,4.696 -17.28,4.696 -21.356,3.132 -24.637,0 -27.924,-3.127 -29.8,-7.322 -30.261,-12.576 H 5.214 C 5.134,-7.322 3.396,-3.127 0,0 m -12.641,-50.139 c -9.272,0 -16.809,3.012 -22.604,9.041 -5.803,6.032 -8.697,14.028 -8.697,24 0,9.967 2.939,17.95 8.814,23.94 5.87,5.987 13.465,8.982 22.776,8.982 9.315,0 16.868,-2.88 22.668,-8.636 5.796,-5.756 8.693,-13.274 8.693,-22.545 0,-2.245 -0.157,-4.33 -0.462,-6.262 h -48.924 c 0.308,-5.332 2.104,-9.567 5.391,-12.695 3.281,-3.131 7.399,-4.696 12.345,-4.696 7.19,0 12.248,2.975 15.188,8.926 h 14.257 c -1.927,-5.877 -5.447,-10.684 -10.544,-14.43 -5.109,-3.75 -11.403,-5.625 -18.901,-5.625"
             style="fill:#ffffff;fill-opacity:1;fill-rule:nonzero;stroke:none"
             id="path140"
             inkscape:connector-curvature="0" /></g><g
           id="g142"
           transform="translate(806.5186,352.4902)"
           style="fill:#ffffff"><path
             d="m 0,0 -25.148,62.835 h 14.716 L 7.54,14.146 26.209,62.835 H 39.886 L 0.704,-31.068 h -13.682 z"
             style="fill:#ffffff;fill-opacity:1;fill-rule:nonzero;stroke:none"
             id="path144"
             inkscape:connector-curvature="0" /></g></g></g></g></svg>